HIERARCHY
ROOT hip
{
  OFFSET 0.0 0.0 0.0
  CHANNELS 6 Xposition Yposition Zposition Zrotation Yrotation Xrotation
  JOINT abdomen
  {
    OFFSET 0.0 20.6881 -0.73152
    CHANNELS 3 Zrotation Xrotation Yrotation
    JOINT chest
    {
      OFFSET 0.0 11.7043 -0.48768
      CHANNELS 3 Zrotation Xrotation Yrotation
      JOINT neck
      {
        OFFSET 0.0 22.1894 -2.19456
        CHANNELS 3 Zrotation Xrotation Yrotation
        JOINT head
        {
          OFFSET -0.24384 7.07133 1.2192
          CHANNELS 3 Zrotation Xrotation Yrotation
          JOINT leftEye
          {
            OFFSET 4.14528 8.04674 8.04672
            CHANNELS 3 Zrotation Xrotation Yrotation
            End Site
            {
              OFFSET 1.0 0.0 0.0
            }
          }
          JOINT rightEye
          {
            OFFSET -3.6576 8.04674 8.04672
            CHANNELS 3 Zrotation Xrotation Yrotation
            End Site
            {
              OFFSET 1.0 0.0 0.0
            }
          }
        }
      }
      JOINT rCollar
      {
        OFFSET -2.68224 19.2634 -4.8768
        CHANNELS 3 Zrotation Xrotation Yrotation
        JOINT rShldr
        {
          OFFSET -8.77824 -1.95073 1.46304
          CHANNELS 3 Zrotation Xrotation Yrotation
          JOINT rForeArm
          {
            OFFSET -28.1742 -1.7115 0.48768
            CHANNELS 3 Zrotation Xrotation Yrotation
            JOINT rHand
            {
              OFFSET -22.5879 0.773209 7.07136
              CHANNELS 3 Zrotation Xrotation Yrotation
              JOINT rThumb1
              {
                OFFSET -1.2192 -0.487915 3.41376
                CHANNELS 3 Zrotation Xrotation Yrotation
                JOINT rThumb2
                {
                  OFFSET -3.37035 -0.52449 3.41376
                  CHANNELS 3 Zrotation Xrotation Yrotation
                  End Site
                  {
                    OFFSET -1.78271 -1.18214 1.43049
                  }
                }
              }
              JOINT rIndex1
              {
                OFFSET -7.75947 0.938293 5.60832
                CHANNELS 3 Zrotation Xrotation Yrotation
                JOINT rIndex2
                {
                  OFFSET -2.54057 -0.884171 1.56538
                  CHANNELS 3 Zrotation Xrotation Yrotation
                  End Site
                  {
                    OFFSET -1.62519 -0.234802 1.16502
                  }
                }
              }
              JOINT rMid1
              {
                OFFSET -8.24714 1.18213 3.41376
                CHANNELS 3 Zrotation Xrotation Yrotation
                JOINT rMid2
                {
                  OFFSET -3.10165 -0.590103 1.0647
                  CHANNELS 3 Zrotation Xrotation Yrotation
                  End Site
                  {
                    OFFSET -2.48547 -0.328903 0.83742
                  }
                }
              }
              JOINT rRing1
              {
                OFFSET -8.82822 0.546677 1.51678
                CHANNELS 3 Zrotation Xrotation Yrotation
                JOINT rRing2
                {
                  OFFSET -2.60934 -0.819778 -0.0198488
                  CHANNELS 3 Zrotation Xrotation Yrotation
                  End Site
                  {
                    OFFSET -2.33842 -0.294052 0.168128
                  }
                }
              }
              JOINT rPinky1
              {
                OFFSET -8.27202 -0.0477905 -0.4584
                CHANNELS 3 Zrotation Xrotation Yrotation
                JOINT rPinky2
                {
                  OFFSET -1.82734 -0.647385 -0.700984
                  CHANNELS 3 Zrotation Xrotation Yrotation
                  End Site
                  {
                    OFFSET -1.69225 -0.51767 -0.607171
                  }
                }
              }
            }
          }
        }
      }
      JOINT lCollar
      {
        OFFSET 2.68224 19.2634 -4.8768
        CHANNELS 3 Zrotation Xrotation Yrotation
        JOINT lShldr
        {
          OFFSET 8.77824 -1.95073 1.46304
          CHANNELS 3 Zrotation Xrotation Yrotation
          JOINT lForeArm
          {
            OFFSET 28.1742 -1.7115 0.48768
            CHANNELS 3 Zrotation Xrotation Yrotation
            JOINT lHand
            {
              OFFSET 22.5879 0.773209 7.07136
              CHANNELS 3 Zrotation Xrotation Yrotation
              JOINT lThumb1
              {
                OFFSET 1.2192 -0.487915 3.41376
                CHANNELS 3 Zrotation Xrotation Yrotation
                JOINT lThumb2
                {
                  OFFSET 3.37035 -0.52449 3.41376
                  CHANNELS 3 Zrotation Xrotation Yrotation
                  End Site
                  {
                    OFFSET 1.78271 -1.18214 1.43049
                  }
                }
              }
              JOINT lIndex1
              {
                OFFSET 7.75947 0.938293 5.60832
                CHANNELS 3 Zrotation Xrotation Yrotation
                JOINT lIndex2
                {
                  OFFSET 2.54057 -0.884171 1.56538
                  CHANNELS 3 Zrotation Xrotation Yrotation
                  End Site
                  {
                    OFFSET 1.62519 -0.234802 1.16502
                  }
                }
              }
              JOINT lMid1
              {
                OFFSET 8.24714 1.18213 3.41376
                CHANNELS 3 Zrotation Xrotation Yrotation
                JOINT lMid2
                {
                  OFFSET 3.10165 -0.590103 1.0647
                  CHANNELS 3 Zrotation Xrotation Yrotation
                  End Site
                  {
                    OFFSET 2.48547 -0.328903 0.83742
                  }
                }
              }
              JOINT lRing1
              {
                OFFSET 8.82822 0.546677 1.51678
                CHANNELS 3 Zrotation Xrotation Yrotation
                JOINT lRing2
                {
                  OFFSET 2.60934 -0.819778 -0.0198488
                  CHANNELS 3 Zrotation Xrotation Yrotation
                  End Site
                  {
                    OFFSET 2.33842 -0.294052 0.168128
                  }
                }
              }
              JOINT lPinky1
              {
                OFFSET 8.27202 -0.0477905 -0.4584
                CHANNELS 3 Zrotation Xrotation Yrotation
                JOINT lPinky2
                {
                  OFFSET 1.82734 -0.647385 -0.700984
                  CHANNELS 3 Zrotation Xrotation Yrotation
                  End Site
                  {
                    OFFSET 1.69225 -0.51767 -0.607171
                  }
                }
              }
            }
          }
        }
      }
    }
  }
  JOINT rButtock
  {
    OFFSET -8.77824 4.35084 1.2192
    CHANNELS 3 Zrotation Xrotation Yrotation
    JOINT rThigh
    {
      OFFSET 0.0 -1.70687 -2.19456
      CHANNELS 3 Zrotation Xrotation Yrotation
      JOINT rShin
      {
        OFFSET 0.0 -36.8199 0.73152
        CHANNELS 3 Zrotation Xrotation Yrotation
        JOINT rFoot
        {
          OFFSET 0.73152 -45.1104 -5.12064
          CHANNELS 3 Zrotation Xrotation Yrotation
          End Site
          {
            OFFSET -1.1221 -3.69964 12.103
          }
        }
      }
    }
  }
  JOINT lButtock
  {
    OFFSET 8.77824 4.35084 1.2192
    CHANNELS 3 Zrotation Xrotation Yrotation
    JOINT lThigh
    {
      OFFSET 0.0 -1.70687 -2.19456
      CHANNELS 3 Zrotation Xrotation Yrotation
      JOINT lShin
      {
        OFFSET 0.0 -36.8199 0.73152
        CHANNELS 3 Zrotation Xrotation Yrotation
        JOINT lFoot
        {
          OFFSET -0.73152 -45.1104 -5.12064
          CHANNELS 3 Zrotation Xrotation Yrotation
          End Site
          {
            OFFSET 1.1221 -3.69964 12.103
          }
        }
      }
    }
  }
}
MOTION
Frames: 8
Frame Time: 0.00833333
0.0 83.0669 0.0 -0.335 5.3342 12.4063 -3.48773 12.5204 -3.79822 0.0327567 -2.52125 -1.15589 1.66782 7.8351 -0.771099 2.07523 -33.0521 -1.21465 -0.0 0.0 0.0 -0.0 0.0 0.0 8.78275e-14 7.15644e-14 6.21202e-15 78.6223 15.4448 -3.16795 -10.9028 -4.7083 19.5057 -0.361433 16.8511 2.43973 -1.48169e-09 1.53668e-10 9.8754e-10 -2.54981e-09 2.6662e-10 1.73511e-09 -1.48169e-09 1.53672e-10 9.8753e-10 7.73091 5.47488 0.417314 -1.48169e-09 1.53673e-10 9.8754e-10 2.90554 0.965183 0.102902 -1.48169e-09 1.53675e-10 9.87541e-10 10.2786 0.731801 0.0259123 -1.48169e-09 1.53677e-10 9.87553e-10 2.22167 -0.733487 -0.20892 1.89645e-14 -2.22709e-14 5.71009e-14 -37.8801 -20.6408 7.65582 17.6987 -10.3663 -33.3477 3.7798 -47.022 8.67491 3.0886e-09 1.41079e-08 2.31609e-09 5.24043e-09 2.6056e-08 4.09898e-09 3.08859e-09 1.41079e-08 2.3161e-09 -7.73091 5.47488 -0.417314 3.0886e-09 1.41079e-08 2.31609e-09 -2.90554 0.965183 -0.102902 3.0886e-09 1.41079e-08 2.31609e-09 -10.2786 0.731801 -0.0259123 3.08861e-09 1.41079e-08 2.31608e-09 -2.22167 -0.733487 0.20892 -2.03217e-16 0.0 -3.88251e-19 -38.5404 -73.4233 -40.1853 -175.666 70.5349 175.904 -0.728781 14.5735 3.10642 2.03217e-16 0.0 3.88251e-19 4.0107 -34.7948 24.89 0.284186 36.6098 -0.399922 -6.07862 -10.389 -23.8852
0.1860999999999997 83.067 1.0156999999999954 -0.0594 5.6344 12.3804 -3.43535 12.3673 -4.04907 0.0117434 -2.43392 -1.21889 1.73112 7.89812 -0.80315 1.80111 -32.9024 -1.37007 -0.0 0.0 0.0 -0.0 0.0 0.0 1.07382e-13 7.90165e-14 2.39745e-14 78.5772 15.3502 -3.14099 -10.859 -4.67992 19.4225 -0.325865 16.0663 2.31916 -1.13515e-09 1.16959e-10 4.7569e-10 -1.95622e-09 2.02814e-10 8.42905e-10 -1.13515e-09 1.16964e-10 4.75679e-10 7.73091 5.47488 0.417314 -1.13516e-09 1.16965e-10 4.75689e-10 2.90554 0.965183 0.102902 -1.13515e-09 1.16966e-10 4.7569e-10 10.2786 0.731801 0.0259123 -1.13515e-09 1.16968e-10 4.75701e-10 2.22167 -0.733487 -0.20892 1.63588e-14 -2.55741e-14 6.78667e-14 -37.6367 -20.66 7.67728 17.7253 -10.3943 -33.4068 4.30345 -49.2247 9.37738 2.51183e-09 8.55483e-09 1.64742e-09 4.26803e-09 1.61369e-08 2.9299e-09 2.51182e-09 8.55483e-09 1.64743e-09 -7.73091 5.47488 -0.417314 2.51183e-09 8.55482e-09 1.64743e-09 -2.90554 0.965183 -0.102902 2.51182e-09 8.55482e-09 1.64743e-09 -10.2786 0.731801 -0.0259123 2.51183e-09 8.55483e-09 1.64742e-09 -2.22167 -0.733487 0.20892 -2.03217e-16 0.0 -3.88251e-19 -38.2035 -74.1518 -39.7825 -175.417 71.9244 175.634 -0.717306 13.8801 3.02423 2.03217e-16 0.0 3.88251e-19 3.09139 -33.759 23.8244 0.266446 35.9391 -0.413862 -6.17895 -10.9256 -23.646
0.3857999999999997 83.2301 2.0343000000000018 0.1848 5.9413 12.3535 -3.34166 12.1791 -4.27131 -0.0298549 -2.32892 -1.27268 1.79952 7.96369 -0.844388 1.52163 -32.7191 -1.54603 -0.0 0.0 0.0 -0.0 0.0 0.0 1.33981e-13 8.11833e-14 4.39749e-14 78.5411 15.2016 -3.11546 -10.8082 -4.64705 19.3263 -0.282535 14.9754 2.15396 -7.01588e-10 4.13188e-11 -1.99644e-10 -1.21349e-09 7.19064e-11 -3.34525e-10 -7.01589e-10 4.13246e-11 -1.99655e-10 7.73091 5.47488 0.417314 -7.01594e-10 4.13249e-11 -1.99645e-10 2.90554 0.965183 0.102902 -7.01582e-10 4.13262e-11 -1.99645e-10 10.2786 0.731801 0.0259123 -7.01591e-10 4.13281e-11 -1.99634e-10 2.22167 -0.733487 -0.20892 1.51612e-14 -3.71757e-14 8.52196e-14 -37.3768 -20.6734 7.70234 17.7547 -10.4253 -33.4723 4.87691 -51.3778 10.1256 1.67569e-09 3.09213e-09 8.65728e-10 2.85554e-09 6.09693e-09 1.55731e-09 1.67568e-09 3.09213e-09 8.65732e-10 -7.73091 5.47488 -0.417314 1.67569e-09 3.09212e-09 8.65731e-10 -2.90554 0.965183 -0.102902 1.67568e-09 3.09213e-09 8.6573e-10 -10.2786 0.731801 -0.0259123 1.6757e-09 3.09213e-09 8.65721e-10 -2.22167 -0.733487 0.20892 -2.03217e-16 0.0 -3.88251e-19 -37.4068 -74.7428 -38.9435 -175.079 73.5313 175.276 -0.711702 13.2682 2.85367 2.03217e-16 0.0 3.88251e-19 2.21103 -32.7648 22.6732 0.250589 35.3497 -0.430409 -6.26726 -11.5563 -23.267
0.5870999999999995 83.3623 3.0638999999999896 0.4088 6.2638 12.3228 -3.2284 11.9621 -4.47647 -0.0830876 -2.21038 -1.32121 1.86846 8.04757 -0.88947 1.25481 -32.532 -1.72461 -0.0 0.0 0.0 -0.0 0.0 0.0 1.53231e-13 8.49032e-14 6.18663e-14 78.4753 15.0637 -3.07802 -10.7465 -4.6073 19.2092 -0.236363 13.6906 1.96187 -2.79317e-10 -7.52516e-12 -7.89288e-10 -4.89493e-10 -1.25792e-11 -1.36362e-09 -2.79316e-10 -7.51875e-12 -7.89298e-10 7.73091 5.47488 0.417314 -2.79322e-10 -7.51922e-12 -7.89288e-10 2.90554 0.965183 0.102902 -2.7931e-10 -7.51828e-12 -7.8929e-10 10.2786 0.731801 0.0259123 -2.79322e-10 -7.51649e-12 -7.8928e-10 2.22167 -0.733487 -0.20892 1.07194e-14 -4.52988e-14 9.68621e-14 -37.0981 -20.686 7.73354 17.7871 -10.4596 -33.5445 5.46747 -53.3294 10.8728 7.02084e-10 -4.22109e-11 1.20487e-10 1.20675e-09 4.69055e-11 2.40894e-10 7.02076e-10 -4.22058e-11 1.20491e-10 -7.73091 5.47488 -0.417314 7.02084e-10 -4.22148e-11 1.20493e-10 -2.90554 0.965183 -0.102902 7.02074e-10 -4.22039e-11 1.2049e-10 -10.2786 0.731801 -0.0259123 7.0209e-10 -4.22118e-11 1.2048e-10 -2.22167 -0.733487 0.20892 -2.03217e-16 0.0 -3.88251e-19 -36.2117 -75.1686 -37.7275 -174.605 75.3521 174.787 -0.707556 12.6717 2.58976 2.03217e-16 0.0 3.88251e-19 1.3632 -31.78 21.4907 0.235925 34.8094 -0.448947 -6.3413 -12.2604 -22.7794
0.7894000000000005 83.4651 4.106399999999994 0.6136 6.5944 12.2862 -3.11733 11.7228 -4.67612 -0.138996 -2.08242 -1.36842 1.93344 8.16553 -0.93306 1.01799 -32.3713 -1.88824 -0.0 0.0 0.0 -0.0 0.0 0.0 1.50742e-13 9.70147e-14 7.33018e-14 78.3411 15.0012 -3.01527 -10.6695 -4.5583 19.0631 -0.189993 12.3244 1.75958 3.33491e-11 3.61534e-11 -1.04407e-09 4.78805e-11 6.28827e-11 -1.81081e-09 3.33509e-11 3.61597e-11 -1.04408e-09 7.73091 5.47488 0.417314 3.33447e-11 3.61588e-11 -1.04407e-09 2.90554 0.965183 0.102902 3.33573e-11 3.61595e-11 -1.04407e-09 10.2786 0.731801 0.0259123 3.33422e-11 3.61613e-11 -1.04406e-09 2.22167 -0.733487 -0.20892 -1.6186e-15 -3.81669e-14 9.04967e-14 -36.7984 -20.7026 7.77342 17.8228 -10.4974 -33.6239 6.01725 -54.9293 11.5479 -2.87116e-10 1.38979e-09 -4.38808e-10 -4.74529e-10 2.09766e-09 -7.5965e-10 -2.87123e-10 1.38979e-09 -4.38805e-10 -7.73091 5.47488 -0.417314 -2.87117e-10 1.38978e-09 -4.38802e-10 -2.90554 0.965183 -0.102902 -2.87128e-10 1.3898e-09 -4.38805e-10 -10.2786 0.731801 -0.0259123 -2.8711e-10 1.38978e-09 -4.38815e-10 -2.22167 -0.733487 0.20892 -2.03217e-16 0.0 -3.88251e-19 -34.7207 -75.4012 -36.2345 -173.912 77.3828 174.083 -0.701555 12.0242 2.22788 2.03217e-16 0.0 3.88251e-19 0.539155 -30.7755 20.3309 0.221762 34.2857 -0.468865 -6.40003 -13.0168 -22.2142
0.9925999999999995 83.5357 5.159999999999997 0.8121 6.9337 12.2414 -2.99768 11.4606 -4.87062 -0.202802 -1.94683 -1.41415 1.98748 8.33015 -0.978176 0.81325 -32.2484 -2.04105 -0.0 0.0 0.0 -0.0 0.0 0.0 1.1092e-13 1.26764e-13 7.52579e-14 78.0687 15.1095 -2.90309 -10.5693 -4.49492 18.8729 -0.145755 10.8771 1.54715 2.00388e-10 2.27534e-10 -7.79004e-10 3.37976e-10 3.93618e-10 -1.35533e-09 2.00391e-10 2.27539e-10 -7.79011e-10 7.73091 5.47488 0.417314 2.00384e-10 2.27538e-10 -7.79004e-10 2.90554 0.965183 0.102902 2.00395e-10 2.27539e-10 -7.79006e-10 10.2786 0.731801 0.0259123 2.0038e-10 2.27541e-10 -7.78998e-10 2.22167 -0.733487 -0.20892 -2.91381e-14 -3.08386e-15 5.24147e-14 -36.4757 -20.7266 7.81693 17.8603 -10.5373 -33.7077 6.47135 -56.1337 12.095 -1.45553e-09 1.12408e-08 -7.76015e-10 -2.47005e-09 1.89853e-08 -1.39082e-09 -1.45553e-09 1.12408e-08 -7.76014e-10 -7.73091 5.47488 -0.417314 -1.45553e-09 1.12408e-08 -7.7601e-10 -2.90554 0.965183 -0.102902 -1.45554e-09 1.12408e-08 -7.76012e-10 -10.2786 0.731801 -0.0259123 -1.45552e-09 1.12408e-08 -7.76021e-10 -2.22167 -0.733487 0.20892 -2.03217e-16 0.0 -3.88251e-19 -32.9521 -75.405 -34.4851 -172.825 79.6394 172.988 -0.698826 11.3075 1.73176 2.03217e-16 0.0 3.88251e-19 -0.283647 -29.7496 19.1611 0.207826 33.7738 -0.491045 -6.42848 -13.8475 -21.5216
1.1950000000000003 83.5764 6.228099999999998 1.0029 7.2529 12.1861 -2.86362 11.1729 -5.05473 -0.276737 -1.80118 -1.45672 2.0351 8.53022 -1.02622 0.631774 -32.1463 -2.1897 -0.0 0.0 0.0 -0.0 0.0 0.0 4.53611e-14 1.6803e-13 7.06742e-14 77.6977 15.328 -2.75523 -10.4499 -4.41976 18.6472 -0.106428 9.29849 1.31804 2.77502e-10 5.19011e-10 -1.665e-10 4.75628e-10 8.97395e-10 -2.96784e-10 2.77506e-10 5.19014e-10 -1.66502e-10 7.73091 5.47488 0.417314 2.77499e-10 5.19013e-10 -1.66499e-10 2.90554 0.965183 0.102902 2.77508e-10 5.19014e-10 -1.665e-10 10.2786 0.731801 0.0259123 2.77493e-10 5.19017e-10 -1.66492e-10 2.22167 -0.733487 -0.20892 -6.7343e-14 5.04841e-14 -7.34882e-15 -36.1318 -20.7548 7.86465 17.9001 -10.5795 -33.7967 6.82426 -57.0283 12.5183 -2.80278e-09 2.72319e-08 -9.69621e-10 -4.77649e-09 4.66375e-08 -1.78586e-09 -2.80279e-09 2.72318e-08 -9.69621e-10 -7.73091 5.47488 -0.417314 -2.80279e-09 2.72318e-08 -9.69619e-10 -2.90554 0.965183 -0.102902 -2.8028e-09 2.72319e-08 -9.69619e-10 -10.2786 0.731801 -0.0259123 -2.80278e-09 2.72319e-08 -9.69625e-10 -2.22167 -0.733487 0.20892 -2.03217e-16 0.0 -3.88251e-19 -30.9507 -75.1941 -32.5207 -170.916 82.1132 171.073 -0.707921 10.5561 1.11711 2.03217e-16 0.0 3.88251e-19 -1.09128 -28.7146 17.9674 0.194461 33.2895 -0.515433 -6.41968 -14.7569 -20.7029
1.3945000000000007 83.5849 7.307899999999989 1.1915 7.5534 12.1245 -2.74432 10.8631 -5.23159 -0.347333 -1.64328 -1.49775 2.08884 8.74586 -1.0694 0.47406 -32.0519 -2.32065 -0.0 0.0 0.0 -0.0 0.0 0.0 -1.95511e-14 2.046e-13 6.41492e-14 77.354 15.4877 -2.61534 -10.326 -4.34209 18.4137 -0.072372 7.62562 1.0778 3.03966e-10 8.22135e-10 5.0654e-10 5.26189e-10 1.42141e-09 8.67771e-10 3.0397e-10 8.22136e-10 5.06542e-10 7.73091 5.47488 0.417314 3.03963e-10 8.22136e-10 5.06542e-10 2.90554 0.965183 0.102902 3.03969e-10 8.22137e-10 5.06542e-10 10.2786 0.731801 0.0259123 3.03956e-10 8.2214e-10 5.06549e-10 2.22167 -0.733487 -0.20892 -1.03214e-13 1.01071e-13 -6.54755e-14 -35.7693 -20.7819 7.92752 17.9447 -10.6272 -33.8965 7.08096 -57.658 12.8253 -3.96101e-09 4.24038e-08 -1.04208e-09 -6.76237e-09 7.29522e-08 -1.96523e-09 -3.96101e-09 4.24037e-08 -1.04208e-09 -7.73091 5.47488 -0.417314 -3.96101e-09 4.24037e-08 -1.04208e-09 -2.90554 0.965183 -0.102902 -3.96103e-09 4.24038e-08 -1.04208e-09 -10.2786 0.731801 -0.0259123 -3.961e-09 4.24037e-08 -1.04208e-09 -2.22167 -0.733487 0.20892 -2.03217e-16 0.0 -3.88251e-19 -28.8766 -74.8178 -30.4926 -166.85 84.7551 167.003 -0.729093 9.78338 0.456947 2.03217e-16 0.0 3.88251e-19 -1.84479 -27.6684 16.8297 0.181947 32.8321 -0.540043 -6.39215 -15.6958 -19.8661
